<?xml version="1.0" encoding="iso-8859-1"?>
<!-- Uploaded to: SVG Repo, www.svgrepo.com, Generator: SVG Repo Mixer Tools -->
<svg height="800px" width="800px" version="1.1" id="Layer_1" xmlns="http://www.w3.org/2000/svg" xmlns:xlink="http://www.w3.org/1999/xlink" 
	 viewBox="0 0 512 512" xml:space="preserve">
<path style="fill:#FFCC99;" d="M375.094,303.527c-1.002-1.113-2.226-2.115-3.561-3.005c-8.459-5.343-17.362-10.129-26.379-14.358
	c-27.826-12.466-58.101-19.033-89.155-19.033s-61.329,6.567-89.155,19.144c-9.017,4.119-17.92,8.904-26.379,14.247
	c-1.336,0.89-2.56,1.892-3.561,3.005c-2.227,2.56-3.785,5.788-4.119,9.35c-0.555,5.009,1.225,10.017,4.787,13.579l106.63,106.63
	c3.228,3.228,7.57,4.897,11.799,4.897c4.23,0,8.57-1.67,11.799-4.897l106.63-106.63c3.561-3.561,5.343-8.57,4.787-13.579
	C378.879,309.315,377.321,306.087,375.094,303.527z"/>
<path style="fill:#FFC285;" d="M267.798,433.085l106.63-106.63c3.561-3.561,5.343-8.57,4.787-13.579
	c-0.334-3.562-1.892-6.79-4.119-9.35c-1.002-1.113-2.226-2.115-3.561-3.005c-8.459-5.343-17.362-10.129-26.379-14.358
	c-27.826-12.466-58.101-19.033-89.155-19.033v170.852C260.229,437.983,264.57,436.313,267.798,433.085z"/>
<path style="fill:#88CC2A;" d="M472.597,474.824c-3.005-69.565-38.957-133.12-97.169-171.631c-1.224-1.002-2.56-1.781-3.896-2.671
	c-6.567-4.118-15.249-3.228-20.703,2.337l-94.83,94.831l-94.831-94.831c-5.454-5.564-14.136-6.456-20.703-2.337
	c-1.336,0.89-2.671,1.67-3.896,2.671c-58.212,38.511-94.163,102.066-97.169,171.52c-0.711,2.607-0.445,17.76-0.445,20.591
	c0,9.238,7.456,16.696,16.696,16.696h400.696c9.239,0,16.696-7.457,16.696-16.696C473.043,492.484,473.311,477.442,472.597,474.824z
	"/>
<path style="fill:#7FB335;" d="M456.347,512c9.239,0,16.696-7.457,16.696-16.696c0-2.82,0.269-17.863-0.445-20.48
	c-3.005-69.565-38.957-133.12-97.169-171.631c-1.224-1.002-2.56-1.781-3.896-2.671c-6.567-4.118-15.249-3.228-20.703,2.337
	l-94.831,94.831V512H456.347z"/>
<path style="fill:#FFE14D;" d="M239.304,512h33.391V405.927l102.734-102.734c-1.224-1.002-2.56-1.781-3.896-2.671
	c-8.459-5.343-17.362-10.129-26.379-14.358l-89.155,89.155l-89.155-89.043c-9.017,4.119-17.92,8.904-26.379,14.247
	c-1.336,0.89-2.671,1.67-3.896,2.671l102.734,102.734V512z"/>
<path style="fill:#A6673A;" d="M255.999,0C154.713,0,72.347,82.365,72.347,183.652v16.696h33.391v-16.696
	c0-1.892,0-3.784,0.111-5.565c3.005-80.25,69.231-144.696,150.15-144.696c77.133,0,140.91,58.546,149.369,133.565
	c0.334,3.673,0.669,7.346,0.78,11.13c0.111,1.781,0.111,3.673,0.111,5.565v27.826h31.388c1.335-3.45,2.002-7.235,2.002-11.13
	v-16.696C439.652,82.365,357.285,0,255.999,0z"/>
<path style="fill:#3ABBE6;" d="M183.652,166.957v66.783h-77.913c-18.475,0-33.391-14.915-33.391-33.391
	c0-18.408,14.999-33.391,33.391-33.391H183.652z"/>
<path style="fill:#FFCC33;" d="M272.695,512V405.927l102.734-102.734c-1.224-1.002-2.56-1.781-3.896-2.671
	c-8.459-5.343-17.362-10.129-26.379-14.358l-89.155,89.155V512H272.695z"/>
<path style="fill:#99522E;" d="M405.369,166.957c0.334,3.673,0.669,7.346,0.78,11.13c0.111,1.781,0.111,3.673,0.111,5.565v27.826
	h31.388c1.335-3.45,2.002-7.235,2.002-11.13v-16.696C439.651,82.365,357.285,0,255.998,0v33.391
	C333.132,33.391,396.91,91.937,405.369,166.957z"/>
<path style="fill:#33A6CC;" d="M439.652,200.348c0,17.814-14.634,33.391-33.391,33.391h-77.913v-66.783h77.913
	C424.736,166.957,439.652,181.871,439.652,200.348z"/>
<path style="fill:#FFDFB3;" d="M255.999,300.522c-64.445,0-116.87-52.429-116.87-116.87s52.424-116.87,116.87-116.87
	s116.87,52.429,116.87,116.87S320.445,300.522,255.999,300.522z"/>
<path style="fill:#FFCC99;" d="M372.869,183.652c0-64.441-52.424-116.87-116.87-116.87v233.739
	C320.445,300.522,372.869,248.093,372.869,183.652z"/>
<path style="fill:#33A6CC;" d="M389.565,233.739H289.391c-9.217,0-16.696-7.473-16.696-16.696s7.479-16.696,16.696-16.696h100.174
	c9.217,0,16.696,7.473,16.696,16.696S398.782,233.739,389.565,233.739z"/>
<path style="fill:#FFCC33;" d="M389.565,434.087h-66.783c-9.217,0-16.696-7.473-16.696-16.696s7.479-16.696,16.696-16.696h66.783
	c9.217,0,16.696,7.473,16.696,16.696S398.782,434.087,389.565,434.087z"/>
</svg>