<?xml version="1.0" encoding="UTF-8" standalone="no" ?>
<!DOCTYPE svg PUBLIC "-//W3C//DTD SVG 1.1//EN" "http://www.w3.org/Graphics/SVG/1.1/DTD/svg11.dtd">
<svg xmlns="http://www.w3.org/2000/svg" xmlns:xlink="http://www.w3.org/1999/xlink" version="1.1" width="1080" height="1080" viewBox="0 0 1080 1080" xml:space="preserve">
<desc>Created with Fabric.js 5.2.4</desc>
<defs>
</defs>
<rect x="0" y="0" width="100%" height="100%" fill="transparent"></rect>
<g transform="matrix(1 0 0 1 540 540)" id="1185242a-d1c9-4b04-90b2-e364a0c83ae3"  >
<rect style="stroke: none; stroke-width: 1; stroke-dasharray: none; stroke-linecap: butt; stroke-dashoffset: 0; stroke-linejoin: miter; stroke-miterlimit: 4; fill: rgb(255,255,255); fill-rule: nonzero; opacity: 1; visibility: hidden;" vector-effect="non-scaling-stroke"  x="-540" y="-540" rx="0" ry="0" width="1080" height="1080" />
</g>
<g transform="matrix(0 0 0 0 0 0)" id="7377977f-19ff-48ac-aa60-ee2b5e595bb6"  >
</g>
<g transform="matrix(4.6 0 0 4.6 628.19 539.98)" style="" id="ca7d8360-da39-4881-b807-e15352ef8a9c"  >
		<text xml:space="preserve" font-family="Lato" font-size="47" font-style="normal" font-weight="900" style="stroke: none; stroke-width: 1; stroke-dasharray: none; stroke-linecap: butt; stroke-dashoffset: 0; stroke-linejoin: miter; stroke-miterlimit: 4; fill: rgb(161,223,243); fill-rule: nonzero; opacity: 1; white-space: pre;" ><tspan x="-40.44" y="14.76" >crm</tspan></text>
</g>
<g transform="matrix(0.29 0 0 0.29 333.36 548.03)"  >
<g style="" vector-effect="non-scaling-stroke"   >
		<g transform="matrix(16.67 0 0 16.67 0.06 7.57)"  >
<path style="stroke: none; stroke-width: 1; stroke-dasharray: none; stroke-linecap: butt; stroke-dashoffset: 0; stroke-linejoin: miter; stroke-miterlimit: 4; fill: rgb(255,183,77); fill-rule: nonzero; opacity: 1;" vector-effect="non-scaling-stroke"  transform=" translate(-23.49, -23)" d="M 29 43 L 29 38.4 L 31.6 38.9 C 34.5 39.5 37.2 37.4 37.4 34.5 L 38 28 L 40.9 26.8 C 41.9 26.400000000000002 42.3 25.2 41.699999999999996 24.2 L 38 18 C 37.4 10.4 33.1 3 22 3 C 10.6 3 5 11.4 5 20 C 5 23.7 6.3 26.9 8.3 29.6 C 10.100000000000001 32.1 11 35.1 11 38.1 L 11 42.9 L 29 42.9 z" stroke-linecap="round" />
</g>
		<g transform="matrix(16.67 0 0 16.67 33.5 290.84)"  >
<polygon style="stroke: none; stroke-width: 1; stroke-dasharray: none; stroke-linecap: butt; stroke-dashoffset: 0; stroke-linejoin: miter; stroke-miterlimit: 4; fill: rgb(255,152,0); fill-rule: nonzero; opacity: 1;" vector-effect="non-scaling-stroke"  points="3.5,3 3.5,-1.6 -3.5,-3 -3.5,3 " />
</g>
		<g transform="matrix(16.67 0 0 16.67 166.82 -17.49)"  >
<circle style="stroke: none; stroke-width: 1; stroke-dasharray: none; stroke-linecap: butt; stroke-dashoffset: 0; stroke-linejoin: miter; stroke-miterlimit: 4; fill: rgb(120,71,25); fill-rule: nonzero; opacity: 1;" vector-effect="non-scaling-stroke"  cx="0" cy="0" r="1.5" />
</g>
		<g transform="matrix(16.67 0 0 16.67 -66.46 -34.1)"  >
<path style="stroke: none; stroke-width: 1; stroke-dasharray: none; stroke-linecap: butt; stroke-dashoffset: 0; stroke-linejoin: miter; stroke-miterlimit: 4; fill: rgb(255,87,34); fill-rule: nonzero; opacity: 1;" vector-effect="non-scaling-stroke"  transform=" translate(-19.5, -20.5)" d="M 21.4 3 C 12.3 3 5 10.3 5 19.4 C 5 30.5 11 30.799999999999997 11 38 L 13.6 37.1 C 15.7 36.4 17.5 34.800000000000004 18.3 32.7 L 21.1 25.900000000000002 L 27 23 L 27 17 C 27 17 34 13.2 34 6.699999999999999 C 31 4.2 25.7 3 21.4 3 z" stroke-linecap="round" />
</g>
		<g transform="matrix(16.67 0 0 16.67 -41.51 -208.3)"  >
<path style="stroke: none; stroke-width: 1; stroke-dasharray: none; stroke-linecap: butt; stroke-dashoffset: 0; stroke-linejoin: miter; stroke-miterlimit: 4; fill: rgb(84,110,122); fill-rule: nonzero; opacity: 1;" vector-effect="non-scaling-stroke"  transform=" translate(-21, -10.05)" d="M 21 2.1 C 20.4 2.1 20 2.5 20 3.1 L 20 17 C 20 17.6 20.4 18 21 18 C 21.6 18 22 17.6 22 17 L 22 3.1 C 22 2.5 21.6 2.1 21 2.1 z" stroke-linecap="round" />
</g>
		<g transform="matrix(16.67 0 0 16.67 129.53 125.2)"  >
<path style="stroke: none; stroke-width: 1; stroke-dasharray: none; stroke-linecap: butt; stroke-dashoffset: 0; stroke-linejoin: miter; stroke-miterlimit: 4; fill: rgb(84,110,122); fill-rule: nonzero; opacity: 1;" vector-effect="non-scaling-stroke"  transform=" translate(-31.26, -30.06)" d="M 36.9 31.9 C 29 31.9 26.599999999999998 27 26.5 26.799999999999997 C 26.3 26.299999999999997 25.7 26.099999999999998 25.2 26.299999999999997 C 24.7 26.499999999999996 24.5 27.099999999999998 24.7 27.599999999999998 C 24.8 27.9 27.7 33.9 36.9 33.9 C 37.5 33.9 37.9 33.5 37.9 32.9 C 37.9 32.3 37.4 31.9 36.9 31.9 z" stroke-linecap="round" />
</g>
		<g transform="matrix(16.67 0 0 16.67 225.16 174.17)"  >
<circle style="stroke: none; stroke-width: 1; stroke-dasharray: none; stroke-linecap: butt; stroke-dashoffset: 0; stroke-linejoin: miter; stroke-miterlimit: 4; fill: rgb(55,71,79); fill-rule: nonzero; opacity: 1;" vector-effect="non-scaling-stroke"  cx="0" cy="0" r="2" />
</g>
		<g transform="matrix(16.67 0 0 16.67 -41.49 7.52)"  >
<circle style="stroke: none; stroke-width: 1; stroke-dasharray: none; stroke-linecap: butt; stroke-dashoffset: 0; stroke-linejoin: miter; stroke-miterlimit: 4; fill: rgb(55,71,79); fill-rule: nonzero; opacity: 1;" vector-effect="non-scaling-stroke"  cx="0" cy="0" r="7" />
</g>
		<g transform="matrix(16.67 0 0 16.67 -41.5 7.51)"  >
<circle style="stroke: none; stroke-width: 1; stroke-dasharray: none; stroke-linecap: butt; stroke-dashoffset: 0; stroke-linejoin: miter; stroke-miterlimit: 4; fill: rgb(84,110,122); fill-rule: nonzero; opacity: 1;" vector-effect="non-scaling-stroke"  cx="0" cy="0" r="4" />
</g>
</g>
</g>
</svg>